<svg id="Layer_1" height="512" viewBox="0 0 512 512" width="512" xmlns="http://www.w3.org/2000/svg" data-name="Layer 1"><path d="m172 95.345a61 61 0 1 1 122 0v31.877a71.535 71.535 0 0 0 71.528 71.778h31.472v-12h-31.472a59.536 59.536 0 0 1 -59.528-59.778v-31.877a73 73 0 1 0 -146 0v47.655h12z"/><path d="m460 186h31v12h-31z"/><path d="m441.157 116.188h35.528v12h-35.528z" transform="matrix(.881 -.472 .472 .881 -3.311 231.183)"/><path d="m452.922 244.236h12v35.528h-12z" transform="matrix(.472 -.881 .881 .472 11.26 542.806)"/><circle cx="202.732" cy="324.419" r="9.054"/><path d="m165.877 363.581a3.74 3.74 0 0 0 3.325-5.451l-3.325-6.46-3.325 6.46a3.74 3.74 0 0 0 3.325 5.451z"/><path d="m217 196.8v-47.8h-103v47.656a154.965 154.965 0 0 1 50.941-8.884 147.486 147.486 0 0 1 52.059 9.028z"/><circle cx="129.022" cy="324.419" r="9.054"/><path d="m165.877 489.765c79.951 0 145-65.045 145-145 0-58.52-35.425-111-90.249-133.709l-.173-.076c-16.476-7.44-35.025-11.212-55.133-11.212-18.262 0-36.882 3.8-55.344 11.3a145.139 145.139 0 0 0 -89.097 133.701c0 79.951 65.045 144.996 144.996 144.996zm-.015-244.356c44.812 0 81.02 34.769 81.02 77.505 0 25.939-13.882 48.778-37.882 63.16v41.463c0 11.609-8.933 21.463-20.543 21.463h-45.157a21.64 21.64 0 0 1 -21.3-21.463v-.091l.752-41.4c-24.37-14.592-38.173-37.422-38.173-63.131 0-42.737 36.472-77.506 81.283-77.506z"/><path d="m131.817 377.4a6.079 6.079 0 0 1 3.109 5.4l-.683 44.986a9.242 9.242 0 0 0 9.057 9.214h45.16c4.993 0 8.543-4.471 8.543-9.463v-44.937a6.253 6.253 0 0 1 3.365-5.258c22.264-12.238 34.653-31.562 34.653-54.424 0-36.119-30.946-65.5-69.141-65.5s-69.268 29.4-69.268 65.518c-.003 22.295 12.83 42.164 35.205 54.464zm27.183 45.6h-12v-30h12zm26 0h-12v-30h12zm17.732-119.634a21.054 21.054 0 1 1 -21.054 21.053 21.078 21.078 0 0 1 21.054-21.053zm-50.849 49.272 8.659-16.824a6 6 0 0 1 10.67 0l8.659 16.824a15.739 15.739 0 1 1 -27.988 0zm-22.861-49.272a21.054 21.054 0 1 1 -21.054 21.053 21.078 21.078 0 0 1 21.054-21.053z"/></svg>